<svg width="14" height="14" viewBox="0 0 14 14" fill="none" xmlns="http://www.w3.org/2000/svg">
<g clip-path="url(#clip0_3_88)">
<path d="M4.04842 2.91676C4.04827 3.22618 3.9252 3.52287 3.7063 3.74155C3.4874 3.96023 3.19059 4.083 2.88117 4.08285C2.57175 4.08269 2.27507 3.95963 2.05638 3.74072C1.8377 3.52182 1.71493 3.22501 1.71509 2.9156C1.71524 2.60618 1.83831 2.30949 2.05721 2.09081C2.27611 1.87213 2.57292 1.74936 2.88234 1.74951C3.19176 1.74967 3.48844 1.87273 3.70713 2.09163C3.92581 2.31053 4.04858 2.60734 4.04842 2.91676ZM4.08342 4.94676H1.75009V12.2501H4.08342V4.94676ZM7.77009 4.94676H5.44842V12.2501H7.74675V8.4176C7.74675 6.2826 10.5293 6.08426 10.5293 8.4176V12.2501H12.8334V7.62426C12.8334 4.0251 8.71509 4.15926 7.74675 5.92676L7.77009 4.94676Z" fill="black"/>
</g>
<defs>
<clipPath id="clip0_3_88">
<rect width="14" height="14" fill="white"/>
</clipPath>
</defs>
</svg>
